<svg xmlns="http://www.w3.org/2000/svg" version="1.1" xmlns:xlink="http://www.w3.org/1999/xlink" width="16" height="16" x="0" y="0" viewBox="0 0 32 32" style="enable-background:new 0 0 512 512" xml:space="preserve" class=""><g><path d="m28.583 4.694-8.649-2.629A1.5 1.5 0 0 0 18 3.499v24.995c0 1.004.97 1.733 1.942 1.439l8.64-2.626A1.99 1.99 0 0 0 30 25.393V6.607a1.99 1.99 0 0 0-1.417-1.913zM28 25.393l-8 2.432V4.175l8 2.432zM11 11a1 1 0 0 1-1-1V6c0-1.103.897-2 2-2h4a1 1 0 1 1 0 2h-4v4a1 1 0 0 1-1 1zM16 28h-4c-1.103 0-2-.897-2-2v-4a1 1 0 1 1 2 0v4h4a1 1 0 1 1 0 2zM15.707 16.707l-3 3a.999.999 0 1 1-1.414-1.414L12.586 17H3a1 1 0 1 1 0-2h9.586l-1.293-1.293a.999.999 0 1 1 1.414-1.414l3 3a.999.999 0 0 1 0 1.414z" fill="#000000" opacity="1" data-original="#000000" class=""></path><path d="M22 18a1 1 0 0 1-1-1v-2a1 1 0 1 1 2 0v2a1 1 0 0 1-1 1z" fill="#000000" opacity="1" data-original="#000000" class=""></path></g></svg>