<svg xmlns="http://www.w3.org/2000/svg" version="1.1" xmlns:xlink="http://www.w3.org/1999/xlink" width="16" height="16" x="0" y="0" viewBox="0 0 512 512" style="enable-background:new 0 0 512 512" xml:space="preserve" class=""><g><path d="M96 64a8 8 0 0 0-16 0v63.988H64V64a8 8 0 0 0-16 0v64H32V64a8 8 0 0 0-16 0v118.111a84.209 84.209 0 0 0 8.845 37.467A68.118 68.118 0 0 1 32 249.889V432a24 24 0 0 0 48 0V249.889a68.118 68.118 0 0 1 7.155-30.311A84.209 84.209 0 0 0 96 182.111ZM80 182.111a68.121 68.121 0 0 1-7.155 30.311A84.209 84.209 0 0 0 64 249.889V432a8 8 0 0 1-16 0V249.889a84.209 84.209 0 0 0-8.845-37.467A68.121 68.121 0 0 1 32 182.111V144h23.865c.046 0 .089.007.135.007s.09-.006.136-.007H80ZM488 56a72.081 72.081 0 0 0-72 72v96a56.068 56.068 0 0 0 32 50.586V432a24 24 0 0 0 48 0V64a8 8 0 0 0-8-8Zm-56 168v-96a56.089 56.089 0 0 1 48-55.431V264h-8a40.045 40.045 0 0 1-40-40Zm40 216a8.009 8.009 0 0 1-8-8V279.419a56.14 56.14 0 0 0 8 .581h8v152a8.009 8.009 0 0 1-8 8ZM256 96c-88.224 0-160 71.775-160 160s71.776 160 160 160 160-71.775 160-160S344.224 96 256 96Zm0 304c-79.4 0-144-64.6-144-144s64.6-144 144-144 144 64.6 144 144-64.6 144-144 144Z" fill="#000000" opacity="1" data-original="#000000" class=""></path><path d="M256 144a112 112 0 1 0 112 112 112.127 112.127 0 0 0-112-112Zm0 208a96 96 0 1 1 96-96 96.108 96.108 0 0 1-96 96Z" fill="#000000" opacity="1" data-original="#000000" class=""></path><path d="m306.343 194.343-40 40a23.973 23.973 0 0 0-20.682 0l-24-24-11.314 11.314 24 24a24 24 0 1 0 43.31 0l40-40ZM256 264a8 8 0 1 1 8-8 8.009 8.009 0 0 1-8 8Z" fill="#000000" opacity="1" data-original="#000000" class=""></path></g></svg>