<svg xmlns="http://www.w3.org/2000/svg" version="1.1" xmlns:xlink="http://www.w3.org/1999/xlink" width="16" height="16" x="0" y="0" viewBox="0 0 512 512" style="enable-background:new 0 0 512 512" xml:space="preserve" class=""><g><path d="M362.667 0c-47.052 0-85.333 38.281-85.333 85.333s38.281 85.333 85.333 85.333S448 132.385 448 85.333 409.719 0 362.667 0zm0 149.333c-35.292 0-64-28.708-64-64s28.708-64 64-64 64 28.708 64 64-28.709 64-64 64z" fill="#000000" opacity="1" data-original="#000000" class=""></path><path d="M373.333 80.917V53.333c0-5.896-4.771-10.667-10.667-10.667S352 47.438 352 53.333v32a10.66 10.66 0 0 0 3.125 7.542l10.667 10.667a10.634 10.634 0 0 0 7.542 3.125c2.729 0 5.458-1.042 7.542-3.125 4.167-4.167 4.167-10.917 0-15.083l-7.543-7.542zM268.906 277.333h-55.573C201.573 277.333 192 267.76 192 256v-85.333C192 147.135 172.865 128 149.333 128s-42.667 19.135-42.667 42.667V288c0 20.901 8.688 39.766 22.577 53.333h-22.577c-11.76 0-21.333-9.573-21.333-21.333V138.667A10.66 10.66 0 0 0 74.666 128 10.66 10.66 0 0 0 64 138.667V320c0 23.531 19.135 42.667 42.667 42.667H128v128H96a10.66 10.66 0 0 0-10.667 10.667A10.66 10.66 0 0 0 96 512h85.333A10.66 10.66 0 0 0 192 501.333a10.66 10.66 0 0 0-10.667-10.667h-32v-128h85.333v116.156c0 18.292 14.885 33.177 33.177 33.177 16.927 0 31.115-12.688 32.969-29.354l18.875-148.563c.208-1.885.313-3.771.313-5.656 0-28.176-22.917-51.093-51.094-51.093zm29.594 54.219-18.875 148.573a11.837 11.837 0 0 1-11.781 10.542c-6.531 0-11.844-5.313-11.844-11.844V352a10.66 10.66 0 0 0-10.667-10.667h-64C151.927 341.333 128 317.406 128 288V170.667c0-11.76 9.573-21.333 21.333-21.333 11.76 0 21.333 9.573 21.333 21.333V256c0 23.531 19.135 42.667 42.667 42.667h55.573c16.406 0 29.76 13.354 29.76 29.76a28.826 28.826 0 0 1-.166 3.125zM160 106.667c29.406 0 53.333-23.927 53.333-53.333S189.406 0 160 0s-53.333 23.927-53.333 53.333 23.927 53.334 53.333 53.334zm0-85.334c17.646 0 32 14.354 32 32s-14.354 32-32 32-32-14.354-32-32c0-17.645 14.354-32 32-32z" fill="#000000" opacity="1" data-original="#000000" class=""></path></g></svg>