<svg xmlns="http://www.w3.org/2000/svg" version="1.1" xmlns:xlink="http://www.w3.org/1999/xlink" width="16" height="16" x="0" y="0" viewBox="0 0 32 32" style="enable-background:new 0 0 512 512" xml:space="preserve" class=""><g><path d="M12.5 12c1.93 0 3.5-1.57 3.5-3.5S14.43 5 12.5 5 9 6.57 9 8.5s1.57 3.5 3.5 3.5zm0-5c.827 0 1.5.673 1.5 1.5s-.673 1.5-1.5 1.5S11 9.327 11 8.5 11.673 7 12.5 7zM17.68 14.267a1 1 0 0 1 .054 1.413c-.799.861-1.83 1.337-2.874 1.337-.976 0-1.842-.427-2.557-1.078l-1.373 3.433a1 1 0 0 1-1.858-.743l1.639-4.098a8.123 8.123 0 0 0-1.695-.447l-2.002 4.804a.176.176 0 0 0 .051.205l3.596 3.155c.215.19.339.464.339.752v4a1 1 0 1 1-2 0v-3.547L7.914 22.5l-2.207 2.207A.996.996 0 0 1 5 25H2a1 1 0 1 1 0-2h2.586l1.822-1.822-.641-.562a2.156 2.156 0 0 1-.6-2.497l1.659-3.983a4.958 4.958 0 0 0-.696.2c-1.04.392-1.824 1.119-2.208 2.046a1 1 0 0 1-1.848-.764c.598-1.444 1.787-2.564 3.351-3.153 2.066-.778 4.53-.563 6.943.607h.002l.003.002c.143.07.323.152.476.4.407.658 1.062 1.458 1.873 1.537.765.082 1.376-.51 1.543-.69a1 1 0 0 1 1.415-.054zM20 16h3.586l-1.293-1.293a.999.999 0 1 1 1.414-1.414l3 3a.999.999 0 0 1 0 1.414l-3 3a.999.999 0 1 1-1.414-1.414L23.586 18H20a1 1 0 1 1 0-2z" fill="#000000" opacity="1" data-original="#000000" class=""></path><path d="M30 3v26a1 1 0 0 1-1 1h-9a1 1 0 0 1-1-1v-7a1 1 0 1 1 2 0v6h7V4h-7v8a1 1 0 1 1-2 0V3a1 1 0 0 1 1-1h9a1 1 0 0 1 1 1z" fill="#000000" opacity="1" data-original="#000000" class=""></path></g></svg>