<svg xmlns="http://www.w3.org/2000/svg" version="1.1" xmlns:xlink="http://www.w3.org/1999/xlink" width="512" height="512" x="0" y="0" viewBox="0 0 24 24" style="enable-background:new 0 0 512 512" xml:space="preserve" class=""><g><path d="M20.828 9.917 12.844 17.9a4.93 4.93 0 0 1-6.807.273 4.766 4.766 0 0 1-.1-6.843l6.8-6.8a2.845 2.845 0 0 1 4.023 4.023l-6.8 6.8a.944.944 0 0 1-1.3 0 .925.925 0 0 1 0-1.3l5.437-5.437A1 1 0 0 0 12.673 7.2l-5.437 5.435a2.927 2.927 0 0 0 0 4.133 2.992 2.992 0 0 0 4.132 0l6.8-6.8a4.845 4.845 0 1 0-6.855-6.848l-6.8 6.8a6.765 6.765 0 0 0 .148 9.713A6.607 6.607 0 0 0 9.223 21.4a7.122 7.122 0 0 0 5.035-2.087l7.984-7.984a1 1 0 1 0-1.414-1.414z" fill="#000000" opacity="1" data-original="#000000" class=""></path></g></svg>