<svg xmlns="http://www.w3.org/2000/svg" version="1.1" xmlns:xlink="http://www.w3.org/1999/xlink" width="32" height="32" x="0" y="0" viewBox="0 0 511.999 511" style="enable-background:new 0 0 512 512" xml:space="preserve" class=""><g><path d="M394.617 227.54a10.07 10.07 0 0 1-7.066-2.93 10.056 10.056 0 0 1-2.93-7.07c0-2.63 1.066-5.208 2.93-7.067a10.07 10.07 0 0 1 7.066-2.93c2.633 0 5.211 1.07 7.07 2.93s2.93 4.437 2.93 7.066c0 2.633-1.07 5.211-2.93 7.07s-4.437 2.93-7.07 2.93zm0 0" fill="#000000" opacity="1" data-original="#000000" class=""></path><path d="M468.879 455.32H43.12c-15.566 0-29.504-8.047-37.285-21.523-7.781-13.48-7.781-29.574 0-43.05L218.719 22.022C226.5 8.547 240.437.5 256 .5s29.5 8.047 37.281 21.523l88.274 152.891c2.761 4.781 1.12 10.899-3.66 13.66-4.786 2.758-10.899 1.121-13.66-3.66l-88.27-152.89c-4.168-7.215-11.633-11.528-19.965-11.528s-15.797 4.313-19.965 11.527L23.156 400.743c-4.168 7.218-4.168 15.835 0 23.054 4.164 7.219 11.63 11.527 19.965 11.527H468.88c8.336 0 15.797-4.308 19.965-11.527s4.168-15.836 0-23.055l-85.332-147.8c-2.762-4.782-1.121-10.895 3.66-13.657 4.781-2.762 10.898-1.125 13.66 3.66l85.332 147.801c7.781 13.477 7.781 29.57 0 43.05-7.785 13.477-21.719 21.524-37.285 21.524zm0 0" fill="#000000" opacity="1" data-original="#000000" class=""></path><path d="M256 303.027c-17.645 0-31.996-14.355-31.996-31.996V180.79c0-17.644 14.351-31.996 31.996-31.996s31.996 14.352 31.996 31.996v90.242c0 17.64-14.351 31.996-31.996 31.996zm0-134.234c-6.617 0-12 5.383-12 11.996v90.242c0 6.617 5.383 12 12 12s12-5.383 12-12V180.79c0-6.613-5.383-11.996-12-11.996zM256 391.02c-17.645 0-31.996-14.352-31.996-31.997 0-17.644 14.351-31.996 31.996-31.996s31.996 14.352 31.996 31.996c0 8.547-3.328 16.582-9.371 22.625-6.043 6.043-14.078 9.372-22.625 9.372zm0-43.997c-6.617 0-12 5.383-12 12 0 6.618 5.383 12 12 12 3.203 0 6.219-1.25 8.484-3.515a11.926 11.926 0 0 0 3.516-8.485c0-6.617-5.383-12-12-12zm0 0" fill="#000000" opacity="1" data-original="#000000" class=""></path></g></svg>