<?xml version="1.0" encoding="UTF-8"?>
<svg xmlns="http://www.w3.org/2000/svg" id="Layer_2" data-name="Layer 2" width="645.92" height="135.77" viewBox="0 0 645.92 135.77">
  <g id="Capa_1" data-name="Capa 1">
    <path d="M140.29,87.33c-1.31,5-3.94,12.9-16,24.85a29.15,29.15,0,0,1-6.28,4.65A15.1,15.1,0,0,1,107,118.46c-1.64-.38-15.45-4.49-17.57-5-4.11-1-6.29-2.19-11,.46-8.21,5.29-11.14,7.5-21.79,15.16-3.43,2.32-6.36,4.3-9.6,6.35a2.5,2.5,0,0,1-2.2.17c-4.17-2.81-8.22-4.76-12.7-7.93,9.79-3.32,23-13,31.09-19.69A249.37,249.37,0,0,0,93.69,78.16c7-7.63,15.86-11.1,25.67-13.39a126.58,126.58,0,0,1,21.44-3.24s2.2,15.48-.5,25.8Z" transform="translate(0 0)" fill="#ed5d1f"></path>
    <path d="M138.94,52.06c-4.34.48-9.56,1.22-13.75,1.83C114.42,55.44,103.86,58,94.85,64.33c-4.53,3.2-8.4,7.39-12.33,11.36-14.4,14.5-28.57,27.71-46,38.55a90.78,90.78,0,0,1-11.72,6.12A58.53,58.53,0,0,1,7.31,99.56C1.94,88.84-1.63,77.89.75,64.84c3.15.58,8.12,1.49,11,2,26.06,5,49.95-2.56,69.81-19.74,4.68-4,9.68-7.72,14.11-12a70.38,70.38,0,0,1,24.06-15.39s4,3.42,13.71,19.73a88.41,88.41,0,0,1,5.54,12.63Z" transform="translate(0 0)" fill="#ed5d1f"></path>
    <path d="M114,13.51c-2.3,1-4.37,2-6.44,2.92-10.11,4.64-18.27,12-26.44,19.28C71.91,43.9,62,50.8,50.19,54.74c-15.46,5.17-26.42,4.67-47.95-.12a73.26,73.26,0,0,1,6.3-20.07C20.13,9.53,50-3.33,80.41.75A61.42,61.42,0,0,1,114,13.49Z" transform="translate(0 0)" fill="#ed5d1f"></path>
    <polygon points="194.09 46.86 224.3 14.71 209.31 14.72 185.21 39.79 185.23 56.55 185.26 56.51 210.61 86.62 226.22 86.61 194.09 46.86" fill="#ed5d1f"></polygon>
    <rect x="166.78" y="14.76" width="13.35" height="71.9" transform="translate(-0.05 0.18) rotate(-0.06)" fill="#ed5d1f"></rect>
    <path d="M275.66,63l1-.44a23.61,23.61,0,0,0,10.52-8.74,24.42,24.42,0,0,0,3.68-13.61,24.75,24.75,0,0,0-3.71-13.66,23.76,23.76,0,0,0-10.54-8.82,39.58,39.58,0,0,0-16.38-3.06l-29.58,0,.07,71.9h13.35L244.05,26l15.61,0q8.83,0,13.3,3.68t4.48,10.58q0,6.78-4.46,10.58t-13.3,3.82H249.15v11H260.3c1,0,1.89,0,2.81-.08l14.67,21h14.38L275.63,63Z" transform="translate(0 0)" fill="#ed5d1f"></path>
    <path d="M482.09,62.8l1-.44a23.61,23.61,0,0,0,10.52-8.74A24.42,24.42,0,0,0,497.33,40a24.67,24.67,0,0,0-3.71-13.66,23.76,23.76,0,0,0-10.54-8.82,39.58,39.58,0,0,0-16.38-3.06l-29.58,0,.07,71.9h13.35l-.06-60.61,15.61,0q8.84,0,13.3,3.68T483.87,40q0,6.78-4.46,10.58t-13.3,3.82H454.32v11h12.41c1,0,1.89,0,2.81-.09l14.67,21H498.6L482.07,62.81Z" transform="translate(0 0)" fill="#ed5d1f"></path>
    <polygon points="351.48 75.28 351.49 86.48 297.57 86.53 297.49 14.63 349.98 14.58 349.99 25.78 310.86 25.82 310.88 44.51 345.59 44.48 345.6 55.46 310.89 55.5 310.91 75.33 351.48 75.28" fill="#ed5d1f"></polygon>
    <path d="M382.58,69.81l30.46,0,7.16,16.63h14L401.64,14.53H388.49L356.21,86.47H370l7.1-16.66,4.47-10.48L395,27.85,408.51,59.3l-21.46,0L382.56,69.8Z" transform="translate(0 0)" fill="#ed5d1f"></path>
    <path d="M579,64.68A21.42,21.42,0,0,1,576,75.88a22,22,0,0,1-9.39,8.28q-6.32,3.15-16,3.15a50.93,50.93,0,0,1-14.84-2.19A36.62,36.62,0,0,1,523.58,79l5.74-10.38a31.37,31.37,0,0,0,9.45,5.13,34.51,34.51,0,0,0,11.61,1.94c4.79,0,8.52-1,11.19-2.94a9.35,9.35,0,0,0,4-8,9.26,9.26,0,0,0-3.71-7.8q-3.71-2.86-11.92-2.86h-6.57V45l16.29-19.43-32.64,0V14.41l49-.05V23.3L558.64,44q8.76,1.08,13.75,5.53A19.39,19.39,0,0,1,579,64.69Z" transform="translate(0 0)" fill="#ed5d1f"></path>
    <path d="M641,31.33a33.85,33.85,0,0,0-13.78-12.52,44.44,44.44,0,0,0-20.55-4.5l-22.84,0V25.67h4.65L606,25.61a30,30,0,0,1,14,3.07,22.35,22.35,0,0,1,9.15,8.57,25.2,25.2,0,0,1,3.25,13,25,25,0,0,1-3.22,12.94,22.26,22.26,0,0,1-9.13,8.64,30,30,0,0,1-14,3.1l-22.22,0v11.3l22.85,0a44.41,44.41,0,0,0,20.54-4.54A33.75,33.75,0,0,0,641,69.08a35.39,35.39,0,0,0,4.91-18.85A35.25,35.25,0,0,0,641,31.34Z" transform="translate(0 0)" fill="#ed5d1f"></path>
    <polygon points="178.4 119.4 166.75 119.41 166.74 102.03 169.7 102.03 169.71 116.67 178.38 116.65 178.4 119.4"></polygon>
    <polygon points="190.25 96.64 185.59 100.41 182.61 100.43 186.38 96.64 190.25 96.64"></polygon>
    <polygon points="185.61 119.39 182.66 119.39 182.63 102.01 185.59 102.01 185.61 119.39"></polygon>
    <path d="M207,106.15a8,8,0,0,0-3.19-3.07,9.75,9.75,0,0,0-4.66-1.09H192v17.39h7.09a10,10,0,0,0,4.67-1.1,7.94,7.94,0,0,0,3.17-3.07,8.89,8.89,0,0,0,1.13-4.54,9,9,0,0,0-1.13-4.53Zm-1.82,4.53a6.19,6.19,0,0,1-.76,3.12,5.3,5.3,0,0,1-2.12,2.08,6.8,6.8,0,0,1-3.29.76h-4v-11.9h4a6.9,6.9,0,0,1,3.28.74,5.2,5.2,0,0,1,2.12,2.06,6.31,6.31,0,0,1,.77,3.13Z" transform="translate(0 0)"></path>
    <polygon points="225.56 116.61 225.56 119.35 213.25 119.36 213.24 101.98 225.21 101.97 225.21 104.72 216.2 104.72 216.2 109.19 224.24 109.18 224.24 111.87 216.2 111.89 216.21 116.61 225.56 116.61"></polygon>
    <path d="M241.13,113.56l.08,0a5.47,5.47,0,0,0,2.43-2.12,6.21,6.21,0,0,0,.85-3.28,6.32,6.32,0,0,0-.86-3.31,5.36,5.36,0,0,0-2.43-2.12,8.83,8.83,0,0,0-3.73-.73h-6.6l0,17.39h2.95v-5.1h3.62c.29,0,.58,0,.85,0l3.45,5.11h3.29l-3.93-5.78Zm-3.73-2h-3.56V104.7h3.57a4.65,4.65,0,0,1,3.11.89,3.12,3.12,0,0,1,1,2.52,3.18,3.18,0,0,1-1,2.54,4.64,4.64,0,0,1-3.11.9Z" transform="translate(0 0)"></path>
    <polygon points="262.13 116.57 262.13 119.31 249.83 119.32 249.81 101.94 261.79 101.94 261.79 104.68 252.77 104.69 252.77 109.15 260.82 109.15 260.82 111.83 252.77 111.85 252.79 116.59 262.13 116.57"></polygon>
    <path d="M279,114.4a4.82,4.82,0,0,1-.72,2.54,5,5,0,0,1-2.19,1.87,8.56,8.56,0,0,1-3.62.69h0a10.9,10.9,0,0,1-3.61-.6,7.73,7.73,0,0,1-2.75-1.59l-.17-.16,1.13-2.5.35.31a7.17,7.17,0,0,0,2.23,1.33,7.36,7.36,0,0,0,2.83.52,6,6,0,0,0,2.15-.32,2.3,2.3,0,0,0,1.13-.8,1.87,1.87,0,0,0,.36-1.14,1.53,1.53,0,0,0-.44-1.14,3.69,3.69,0,0,0-1.29-.77,12.63,12.63,0,0,0-1.85-.54q-1-.24-2.1-.57a8.82,8.82,0,0,1-2-.85,4.08,4.08,0,0,1-2.07-3.82,4.79,4.79,0,0,1,.69-2.54,5,5,0,0,1,2.15-1.89,8.56,8.56,0,0,1,3.62-.69h0a10.15,10.15,0,0,1,2.84.4,8,8,0,0,1,2.48,1.14l.21.15-1,2.55-.35-.24a7,7,0,0,0-2.08-1,9.45,9.45,0,0,0-2.12-.31,5.93,5.93,0,0,0-2.1.33,2.39,2.39,0,0,0-1.12.84,2,2,0,0,0-.35,1.16,1.55,1.55,0,0,0,.44,1.17,3.52,3.52,0,0,0,1.27.76,17.44,17.44,0,0,0,1.86.56c.69.16,1.38.35,2.08.56a8.63,8.63,0,0,1,2,.85,4.37,4.37,0,0,1,1.5,1.43,4.25,4.25,0,0,1,.58,2.32Z" transform="translate(0 0)"></path>
    <polygon points="304.73 116.53 304.73 119.27 292.43 119.28 292.42 101.9 304.39 101.89 304.39 104.64 295.38 104.64 295.38 109.11 303.41 109.1 303.43 111.79 295.38 111.81 295.38 116.53 304.73 116.53"></polygon>
    <polygon points="322.15 119.25 313.01 107.45 313.02 119.25 310.06 119.27 310.05 101.89 312.43 101.89 321.56 113.69 321.55 101.88 324.51 101.88 324.52 119.24 322.15 119.25"></polygon>
    <polygon points="342.35 104.6 342.35 109.76 350.4 109.75 350.4 112.47 342.35 112.47 342.37 119.23 339.41 119.23 339.39 101.85 351.37 101.85 351.37 104.58 342.35 104.6"></polygon>
    <path d="M363.14,101.84h-2.71l-7.53,17.38H356l1.75-4.18h8.09l1.77,4.17h3.13Zm-4.31,10.62,3-7,3,7Z" transform="translate(0 0)"></path>
    <path d="M388.34,111.75a4.36,4.36,0,0,0-1.82-1.58l-.11,0a4.54,4.54,0,0,0,1.12-1.19,4.69,4.69,0,0,0,.62-2.47,4.13,4.13,0,0,0-1.62-3.43,7.16,7.16,0,0,0-4.45-1.22h-7.54V119.2h8a8,8,0,0,0,4.79-1.26,4.34,4.34,0,0,0,1.67-3.6,4.8,4.8,0,0,0-.68-2.59Zm-10.82,4.85v-4.9h4.94a5,5,0,0,1,2.71.61,2.06,2.06,0,0,1,.86,1.85,2,2,0,0,1-.85,1.83,5,5,0,0,1-2.74.61h-4.92Zm0-12.19h4.37a4.33,4.33,0,0,1,2.51.61,2.25,2.25,0,0,1,0,3.47,4.41,4.41,0,0,1-2.51.61h-4.37Z" transform="translate(0 0)"></path>
    <path d="M404.44,113.39l.08,0a5.66,5.66,0,0,0,2.43-2.12,6.24,6.24,0,0,0,.85-3.29,6.13,6.13,0,0,0-.86-3.29,5.46,5.46,0,0,0-2.43-2.14,8.83,8.83,0,0,0-3.73-.72h-6.59v17.38h3v-5.09h3.62a7.81,7.81,0,0,0,.85,0l3.45,5.11h3.31l-3.94-5.78Zm-3.73-2h-3.56v-6.85h3.55a4.69,4.69,0,0,1,3.11.9,3.08,3.08,0,0,1,1,2.51,3.17,3.17,0,0,1-1,2.54,4.62,4.62,0,0,1-3.11.92Z" transform="translate(0 0)"></path>
    <polygon points="416.09 119.15 413.15 119.16 413.12 101.78 416.08 101.78 416.09 119.15"></polygon>
    <path d="M436.59,116.35l-.2.24a7.45,7.45,0,0,1-2.79,2,9.06,9.06,0,0,1-3.57.7h0a9.23,9.23,0,0,1-3.49-.66,8.08,8.08,0,0,1-2.8-1.86,8.81,8.81,0,0,1-2.51-6.34,9.49,9.49,0,0,1,.66-3.54,8.48,8.48,0,0,1,4.65-4.68,9.18,9.18,0,0,1,3.51-.66h0a9.15,9.15,0,0,1,3.54.68,7.43,7.43,0,0,1,2.79,2l.2.24-1.94,2-.24-.25a5.59,5.59,0,0,0-4.26-1.87h0a6.23,6.23,0,0,0-2.38.46,5.49,5.49,0,0,0-1.9,1.26,5.69,5.69,0,0,0-1.23,1.93,6.38,6.38,0,0,0-.45,2.44,6.66,6.66,0,0,0,.45,2.44,5.88,5.88,0,0,0,1.25,1.94,5.79,5.79,0,0,0,1.9,1.26,6.28,6.28,0,0,0,2.36.45h0a6,6,0,0,0,2.32-.46,5.65,5.65,0,0,0,1.94-1.43l.24-.27,1.95,2Z" transform="translate(0 0)"></path>
    <path d="M448.71,101.94l-.09-.2h-2.71l-7.53,17.39h3.09l1.75-4.18h8.09l1.77,4.17h3.13Zm-4.39,10.44,2.95-7,3,7h-5.91Z" transform="translate(0 0)"></path>
    <path d="M473.89,116.31l-.2.24a7.53,7.53,0,0,1-2.79,2,9.11,9.11,0,0,1-3.58.7h0a9.46,9.46,0,0,1-3.49-.65,8.3,8.3,0,0,1-2.79-1.87,8.8,8.8,0,0,1-1.85-2.81,9,9,0,0,1-.68-3.53,9.49,9.49,0,0,1,.66-3.54,8.78,8.78,0,0,1,1.86-2.81,8.44,8.44,0,0,1,2.8-1.87,9.11,9.11,0,0,1,3.51-.66,9.3,9.3,0,0,1,3.54.68,7.38,7.38,0,0,1,2.8,2l.2.23-1.95,2-.24-.25a5.55,5.55,0,0,0-4.26-1.87,6.39,6.39,0,0,0-2.39.46,5.64,5.64,0,0,0-1.89,1.26,5.74,5.74,0,0,0-1.25,1.93,6.84,6.84,0,0,0-.44,2.46,6.46,6.46,0,0,0,.45,2.44,5.64,5.64,0,0,0,3.14,3.19,6.36,6.36,0,0,0,4.7,0,5.68,5.68,0,0,0,1.95-1.43l.24-.27,1.95,2Z" transform="translate(0 0)"></path>
    <polygon points="481.63 119.08 478.67 119.1 478.65 101.72 481.6 101.72 481.63 119.08"></polygon>
    <path d="M503.79,106.84a8,8,0,0,0-1.86-2.81,8.38,8.38,0,0,0-2.81-1.87,9.46,9.46,0,0,0-3.49-.65h0a9.07,9.07,0,0,0-3.53.68,8.48,8.48,0,0,0-2.81,1.87,8.85,8.85,0,0,0-2.52,6.35,9.38,9.38,0,0,0,.68,3.51,8.51,8.51,0,0,0,1.86,2.81,8.62,8.62,0,0,0,2.83,1.89,9.32,9.32,0,0,0,3.53.66,9.19,9.19,0,0,0,3.49-.66,8.19,8.19,0,0,0,2.81-1.87,8.61,8.61,0,0,0,1.86-2.81,9.87,9.87,0,0,0,0-7.07Zm-8.18-2.55h0a6,6,0,0,1,2.32.45A5.64,5.64,0,0,1,499.8,106a6.06,6.06,0,0,1,1.25,1.93,6.6,6.6,0,0,1,.44,2.43,6.46,6.46,0,0,1-.44,2.44,5.89,5.89,0,0,1-1.23,1.93A5.36,5.36,0,0,1,498,116a6.34,6.34,0,0,1-4.69,0,5.79,5.79,0,0,1-1.87-1.27,5.69,5.69,0,0,1-1.25-1.94,6.19,6.19,0,0,1-.45-2.43,6.6,6.6,0,0,1,.44-2.43,5.94,5.94,0,0,1,1.25-1.93,5.64,5.64,0,0,1,1.87-1.29,6.23,6.23,0,0,1,2.35-.45Z" transform="translate(0 0)"></path>
    <polygon points="500.73 96.06 496.07 99.84 493.09 99.84 496.87 96.07 500.73 96.06"></polygon>
    <polygon points="521.67 119.04 512.54 107.24 512.55 119.06 509.59 119.06 509.58 101.68 511.94 101.68 521.09 113.48 521.07 101.68 524.02 101.66 524.05 119.04 521.67 119.04"></polygon>
    <path d="M553.87,105.79a8.06,8.06,0,0,0-3.19-3.07,9.76,9.76,0,0,0-4.67-1.08h-7.09V119H546a9.67,9.67,0,0,0,4.67-1.09,7.94,7.94,0,0,0,3.17-3.07,8.87,8.87,0,0,0,1.13-4.54,9,9,0,0,0-1.13-4.53Zm-8-1.41h0a6.9,6.9,0,0,1,3.28.74,5.33,5.33,0,0,1,2.14,2.07,6.39,6.39,0,0,1,.76,3.13,6.19,6.19,0,0,1-.76,3.12,5.28,5.28,0,0,1-2.12,2.07,6.8,6.8,0,0,1-3.29.76h-4v-11.9h4Z" transform="translate(0 0)"></path>
    <polygon points="563.09 119 560.15 119 560.12 101.64 563.08 101.62 563.09 119"></polygon>
    <path d="M583.5,116.61v.25l-.23.2a8.19,8.19,0,0,1-2.79,1.55,10.52,10.52,0,0,1-3.39.56h0a9.24,9.24,0,0,1-3.53-.65,8.41,8.41,0,0,1-2.81-1.86,9,9,0,0,1-1.86-2.81,9.29,9.29,0,0,1-.66-3.54,9,9,0,0,1,.66-3.53,8.36,8.36,0,0,1,4.69-4.69,9.46,9.46,0,0,1,3.57-.66,9.77,9.77,0,0,1,3.6.66,7.25,7.25,0,0,1,2.8,2l.2.24-1.86,1.94-.24-.24a5.9,5.9,0,0,0-2-1.39,6.84,6.84,0,0,0-4.82,0,6,6,0,0,0-1.93,1.27,5.41,5.41,0,0,0-1.25,1.93,6.31,6.31,0,0,0-.45,2.44,6.63,6.63,0,0,0,.45,2.42,5.9,5.9,0,0,0,1.26,2,5.63,5.63,0,0,0,1.91,1.26,6.11,6.11,0,0,0,2.4.45h0a6.87,6.87,0,0,0,2.35-.4,5.4,5.4,0,0,0,1.08-.53v-5.59h2.85v6.74Z" transform="translate(0 0)"></path>
    <rect x="589.5" y="101.6" width="2.95" height="17.38"></rect>
    <polygon points="610.49 104.32 605 104.33 605.01 118.96 602.08 118.96 602.06 104.33 596.57 104.33 596.57 101.6 610.49 101.58 610.49 104.32"></polygon>
    <path d="M621.46,101.57h-2.71L611.22,119h3.09l1.75-4.18h8.09l1.77,4.17h3.13Zm-4.32,10.62,3-7,3,7Z" transform="translate(0 0)"></path>
    <polygon points="644.52 116.17 644.52 118.92 632.89 118.94 632.86 101.56 635.83 101.56 635.84 116.19 644.52 116.17"></polygon>
  </g>
</svg>
