<svg xmlns="http://www.w3.org/2000/svg" version="1.1" xmlns:xlink="http://www.w3.org/1999/xlink" width="32" height="32" x="0" y="0" viewBox="0 0 64 64" style="enable-background:new 0 0 512 512" xml:space="preserve" class=""><g><g data-name="Fingerprint Scan"><path d="M50.74 41.933a1.002 1.002 0 0 1-.946-1.325 22.5 22.5 0 0 0-.24-15.195 1 1 0 0 1 1.87-.705 24.497 24.497 0 0 1 .262 16.549 1 1 0 0 1-.946.676ZM48.738 22.42a1 1 0 0 1-.86-.486 18.447 18.447 0 0 0-7.591-7.2 19.133 19.133 0 0 0-14.922-.722 1 1 0 0 1-.683-1.88 21.139 21.139 0 0 1 16.488.807 20.433 20.433 0 0 1 8.425 7.97 1 1 0 0 1-.857 1.512ZM12 33.118a1 1 0 0 1-1-.998 20.727 20.727 0 0 1 9.475-17.91 1 1 0 1 1 1.078 1.684A18.762 18.762 0 0 0 13 32.117a1 1 0 0 1-.999 1.001Z" fill="#000000" opacity="1" data-original="#000000" class=""></path><path d="M43.013 49.768a1 1 0 0 1-.796-1.605 27.002 27.002 0 0 0 3.859-16.272 16.164 16.164 0 0 0-5.965-11.734 1 1 0 0 1 1.212-1.591 18.16 18.16 0 0 1 6.747 13.17c.691 8.908-2.935 15.892-4.26 17.637a.999.999 0 0 1-.797.395ZM36.88 18.3a.998.998 0 0 1-.327-.055 13.327 13.327 0 0 0-4.546-.728H32a1 1 0 0 1-.007-2 15.589 15.589 0 0 1 5.216.838 1 1 0 0 1-.328 1.945ZM12.654 39.212a1 1 0 0 1-.444-1.897c4.108-2.028 4.426-5.19 4.762-8.537a16.835 16.835 0 0 1 .844-4.424c1.62-4.147 6.131-6.94 9.503-8.072a1 1 0 0 1 .637 1.896c-3.197 1.073-6.996 3.624-8.277 6.904a15.196 15.196 0 0 0-.717 3.896c-.34 3.391-.765 7.611-5.866 10.13a.997.997 0 0 1-.442.104Z" fill="#000000" opacity="1" data-original="#000000" class=""></path><path d="M36.892 52.76a1 1 0 0 1-.794-1.607c4.506-5.899 8.104-18.644 3.839-24.164a10.209 10.209 0 0 0-9.631-4.27 1 1 0 0 1-.292-1.979 12.304 12.304 0 0 1 11.506 5.027c5.061 6.55 1.11 20.13-3.833 26.6a.998.998 0 0 1-.795.393ZM14.449 43.538a1 1 0 0 1-.4-1.917c4.759-2.077 5.828-3.98 6.22-5.23a13.254 13.254 0 0 0 .46-3.805 14.294 14.294 0 0 1 .783-5.094 10.494 10.494 0 0 1 3.906-4.962 1 1 0 1 1 1.128 1.652 8.496 8.496 0 0 0-3.164 4.02 12.495 12.495 0 0 0-.654 4.43 15.038 15.038 0 0 1-.55 4.356c-.808 2.582-3.136 4.637-7.33 6.466a1 1 0 0 1-.4.084Z" fill="#000000" opacity="1" data-original="#000000" class=""></path><path d="M28.894 53.168a1 1 0 0 1-.685-1.729 30.2 30.2 0 0 0 6.138-8.467 1 1 0 0 1 1.794.885 32.25 32.25 0 0 1-6.562 9.039.994.994 0 0 1-.685.272ZM36.882 40.36a1.001 1.001 0 0 1-.955-1.298 14.207 14.207 0 0 0 .496-8.075 4.786 4.786 0 0 0-4.512-3.406 3.423 3.423 0 0 0-3.458 2.141 13.063 13.063 0 0 0-.546 2.419 1 1 0 1 1-1.98-.283 14.97 14.97 0 0 1 .634-2.785 5.29 5.29 0 0 1 5.394-3.491 6.781 6.781 0 0 1 6.386 4.838 16.154 16.154 0 0 1-.505 9.239 1.001 1.001 0 0 1-.954.702ZM17.469 47.292a1 1 0 0 1-.402-1.916c6.068-2.656 7.723-5.642 8.342-9.308a1 1 0 0 1 1.972.333c-.599 3.547-2.197 7.605-9.512 10.807a.996.996 0 0 1-.4.084ZM23.508 50.638a1 1 0 0 1-.643-1.766 23.932 23.932 0 0 0 6.03-7.675 23.764 23.764 0 0 0 1.07-2.522 1 1 0 1 1 1.883.673 25.814 25.814 0 0 1-1.16 2.735 25.941 25.941 0 0 1-6.538 8.321.996.996 0 0 1-.642.234Z" fill="#000000" opacity="1" data-original="#000000" class=""></path><path d="M32.001 35.824a1 1 0 0 1-.987-1.168 23.855 23.855 0 0 0 .31-2.857 1.017 1.017 0 0 1 1.046-.952 1 1 0 0 1 .951 1.047 25.88 25.88 0 0 1-.335 3.098 1 1 0 0 1-.985.832ZM59 16a1 1 0 0 1-1-1V8a1.993 1.993 0 0 0-1.981-2H49a1 1 0 0 1 0-2h7.019A3.995 3.995 0 0 1 60 8v7a1 1 0 0 1-1 1ZM56.019 60H49a1 1 0 0 1 0-2h7.019A1.993 1.993 0 0 0 58 56v-7a1 1 0 0 1 2 0v7a3.995 3.995 0 0 1-3.981 4ZM5 16a1 1 0 0 1-1-1V8a3.995 3.995 0 0 1 3.981-4H15a1 1 0 0 1 0 2H7.981A1.993 1.993 0 0 0 6 8v7a1 1 0 0 1-1 1ZM15 60H7.981A3.995 3.995 0 0 1 4 56v-7a1 1 0 0 1 2 0v7a1.993 1.993 0 0 0 1.981 2H15a1 1 0 0 1 0 2Z" fill="#000000" opacity="1" data-original="#000000" class=""></path></g></g></svg>